<svg width="27" height="32" viewBox="0 0 27 32" fill="none" xmlns="http://www.w3.org/2000/svg">
<path fill-rule="evenodd" clip-rule="evenodd" d="M7.64328 2.23849C8.33275 1.56872 9.26788 1.19244 10.2429 1.19244H17.1326C18.0932 1.19256 19.0157 1.5579 19.7026 2.2103L24.5775 6.84164C24.9277 7.17422 25.2061 7.57143 25.3961 8.00994C25.5861 8.44845 25.684 8.91943 25.6841 9.39521V21.9067C25.6841 22.8539 25.2968 23.7623 24.6073 24.4321C23.9178 25.1019 22.9827 25.4782 22.0076 25.4782H10.2429C9.26788 25.4782 8.33275 25.1019 7.64328 24.4321C6.95381 23.7623 6.56647 22.8539 6.56647 21.9067V4.76387C6.56647 3.81667 6.95381 2.90826 7.64328 2.23849ZM10.2429 2.62102C9.6579 2.62102 9.09683 2.84678 8.68314 3.24864C8.26946 3.65051 8.03705 4.19555 8.03705 4.76387V21.9067C8.03705 22.475 8.26946 23.0201 8.68314 23.422C9.09683 23.8238 9.6579 24.0496 10.2429 24.0496H22.0076C22.5927 24.0496 23.1537 23.8238 23.5674 23.422C23.9811 23.0201 24.2135 22.475 24.2135 21.9067V9.39539C24.2135 9.39536 24.2135 9.39542 24.2135 9.39539C24.2135 9.10995 24.1547 8.8273 24.0407 8.56422C23.9267 8.30111 23.7597 8.06279 23.5495 7.86324L18.6745 3.23173C18.6744 3.23171 18.6745 3.23174 18.6745 3.23173C18.2624 2.84034 17.7089 2.62111 17.1326 2.62102C17.1326 2.62102 17.1327 2.62102 17.1326 2.62102H10.2429Z" fill="#7F818D"/>
<path d="M24.2135 9.39539V21.9067C24.2135 22.475 23.9811 23.0201 23.5674 23.422C23.1537 23.8238 22.5927 24.0496 22.0076 24.0496H10.2429C9.6579 24.0496 9.09683 23.8238 8.68314 23.422C8.26946 23.0201 8.03705 22.475 8.03705 21.9067V4.76387C8.03705 4.19555 8.26946 3.65051 8.68314 3.24864C9.09683 2.84678 9.6579 2.62102 10.2429 2.62102H17.1326M24.2135 9.39539C24.2135 9.39542 24.2135 9.39536 24.2135 9.39539ZM24.2135 9.39539C24.2135 9.10995 24.1547 8.8273 24.0407 8.56422C23.9267 8.30111 23.7597 8.06279 23.5495 7.86324L18.6745 3.23173M18.6745 3.23173C18.6745 3.23174 18.6744 3.23171 18.6745 3.23173ZM18.6745 3.23173C18.2624 2.84034 17.7089 2.62111 17.1326 2.62102M17.1326 2.62102C17.1327 2.62102 17.1326 2.62102 17.1326 2.62102ZM10.2429 1.19244C9.26788 1.19244 8.33275 1.56872 7.64328 2.23849C6.95381 2.90826 6.56647 3.81667 6.56647 4.76387V21.9067C6.56647 22.8539 6.95381 23.7623 7.64328 24.4321C8.33275 25.1019 9.26788 25.4782 10.2429 25.4782H22.0076C22.9827 25.4782 23.9178 25.1019 24.6073 24.4321C25.2968 23.7623 25.6841 22.8539 25.6841 21.9067V9.39521C25.684 8.91943 25.5861 8.44845 25.3961 8.00994C25.2061 7.57143 24.9277 7.17422 24.5775 6.84164L19.7026 2.2103C19.0157 1.5579 18.0932 1.19256 17.1326 1.19244H10.2429Z" stroke="#7F818D" stroke-linecap="round" stroke-linejoin="round"/>
<path fill-rule="evenodd" clip-rule="evenodd" d="M4.36061 9.76387C3.77558 9.76387 3.2145 9.98963 2.80082 10.3915C2.38714 10.7934 2.15473 11.3384 2.15473 11.9067V27.621C2.15473 28.1893 2.38714 28.7344 2.80082 29.1362C3.2145 29.5381 3.77558 29.7639 4.36061 29.7639H16.1253C16.7103 29.7639 17.2714 29.5381 17.6851 29.1362C18.0988 28.7344 18.3312 28.1893 18.3312 27.621V24.7639C18.3312 24.3694 18.6604 24.0496 19.0665 24.0496C19.4726 24.0496 19.8018 24.3694 19.8018 24.7639V27.621C19.8018 28.5682 19.4144 29.4766 18.725 30.1464C18.0355 30.8162 17.1004 31.1924 16.1253 31.1924H4.36061C3.38555 31.1924 2.45043 30.8162 1.76096 30.1464C1.07148 29.4766 0.684143 28.5682 0.684143 27.621V11.9067C0.684143 10.9595 1.07148 10.0511 1.76096 9.38134C2.45043 8.71157 3.38555 8.3353 4.36061 8.3353H7.30179C7.70788 8.3353 8.03708 8.65509 8.03708 9.04958C8.03708 9.44407 7.70788 9.76387 7.30179 9.76387H4.36061Z" fill="#7F818D" stroke="#7F818D" stroke-linecap="round" stroke-linejoin="round"/>
</svg>
