<svg width="35" height="35" viewBox="0 0 35 35" fill="none" xmlns="http://www.w3.org/2000/svg">
<path d="M27.2854 10.5146C27.1498 10.3779 26.9885 10.2694 26.8108 10.1953C26.6331 10.1213 26.4425 10.0832 26.2499 10.0832C26.0574 10.0832 25.8668 10.1213 25.6891 10.1953C25.5114 10.2694 25.3501 10.3779 25.2145 10.5146L14.3499 21.3937L9.78536 16.8146C9.6446 16.6786 9.47844 16.5717 9.29636 16.4999C9.11428 16.4282 8.91985 16.393 8.72417 16.3964C8.52849 16.3997 8.33539 16.4416 8.1559 16.5196C7.97641 16.5977 7.81404 16.7103 7.67807 16.851C7.5421 16.9918 7.43518 17.1579 7.36343 17.34C7.29167 17.5221 7.25648 17.7165 7.25987 17.9122C7.26325 18.1079 7.30515 18.301 7.38316 18.4805C7.46117 18.66 7.57377 18.8223 7.71453 18.9583L13.3145 24.5583C13.4501 24.695 13.6114 24.8035 13.7891 24.8775C13.9668 24.9516 14.1574 24.9897 14.3499 24.9897C14.5425 24.9897 14.7331 24.9516 14.9108 24.8775C15.0885 24.8035 15.2498 24.695 15.3854 24.5583L27.2854 12.6583C27.4334 12.5218 27.5515 12.356 27.6323 12.1715C27.7131 11.9871 27.7548 11.7878 27.7548 11.5864C27.7548 11.385 27.7131 11.1858 27.6323 11.0013C27.5515 10.8169 27.4334 10.6511 27.2854 10.5146V10.5146Z" fill="#27B535"/>
</svg>
